# xmcd
#
# Track frame offsets:
#	150
#	16366
#	35927
#	53808
#	70240
#	87873
#	107865
#	121301
#	140280
#	158026
#	172869
#	187185
#	209946
#	232857
#	252036
#	269454
#	286257
#	302636
#	317602
#	335055
#
# Disc length: 4692
#
# Revision: 1
# Processed by: cddbd v1.5.1PL0 Copyright (c) Steve Scherf et al.
# Submitted via: ExactAudioCopy v0.90b3
# Normalized: r0:DSETVAR1
#
DISCID=25125214
DTITLE=Various Artist - CoolSweat Classics [CD1)
DYEAR=2002
DGENRE=R&B
TTITLE0=Christina Aguilera - Genie In A Bottle
TTITLE1=Toni Braxton - He Wasn't Man Enough
TTITLE2=Destiny's Child - Survivor
TTITLE3=Jenifer Lopez - Love Don't Cost A Thing
TTITLE4=Mary J Blige - Family Affair
TTITLE5=Montell Jordan - Get It On Tonite
TTITLE6=Mary Mary - Shackles (Praise You)
TTITLE7=TLC - Creep
TTITLE8=Adina Howard - Freak Like Me
TTITLE9=Craig David - Walking Away
TTITLE10=Afroman - Because I Got High
TTITLE11=Joe - I Wanna Know
TTITLE12=Sparkle and R.Kelly - Be Carefull
TTITLE13=D'angelo - Untitled (How Does It Feel)
TTITLE14=Eternal - Stay
TTITLE15=Lil' Kim - How Many Licks
TTITLE16=A+ - Enjoy Yourself
TTITLE17=Samantha Mumba - Gotta Tell You
TTITLE18=Monifah - Touch It
TTITLE19=Chef - Chocolate Salty Balls
EXTD=TMF CoolSweat Classics
EXTT0=
EXTT1=
EXTT2=
EXTT3=
EXTT4=
EXTT5=
EXTT6=
EXTT7=
EXTT8=
EXTT9=
EXTT10=
EXTT11=
EXTT12=
EXTT13=
EXTT14=
EXTT15=
EXTT16=
EXTT17=
EXTT18=
EXTT19=
PLAYORDER=
